<svg xmlns="http://www.w3.org/2000/svg" viewBox="0 0 300 220"><ellipse cx="149" cy="185" rx="80" ry="15" fill="#0d1b15" opacity=".2"/><path d="M81 74h137l-16 97c-26 14-78 14-104 0L81 74Z" fill="#e8c4d2" stroke="#0d1b15" stroke-width="7"/><path d="M76 71c25-15 123-15 147 0l-7 20c-35 12-102 10-134-1l-6-19Z" fill="#f4f1dd" stroke="#0d1b15" stroke-width="7"/><circle cx="116" cy="73" r="22" fill="#da4b3b"/><circle cx="147" cy="67" r="18" fill="#f0b93c"/><circle cx="178" cy="72" r="21" fill="#7cad51"/><path d="M125 44c-9-15 1-24 12-27m35 30c11-17 22-12 25-25" stroke="#3b6a37" stroke-width="7" stroke-linecap="round"/></svg>
